REM DIRINDEX 1\2\6,1\2\7,1\2\8,1\2\9,1\3\10,1\3\11,1\4\12,1\4\13,1\4\14,1\5\15,1\5\16,1\5\17
REM DIRNAME cjc020,folder01,folder02,folder03,folder04,folder05,folder06,folder07,folder08,folder09,folder10,folder11,folder12,folder13,folder14,folder15,folder16
TITLE ""
FILE "1900_2_sec11_1001_1015.mp3" MP3
  TRACK 01 AUDIO
    TITLE "0:"
    INDEX 01 00:00:00
  TRACK 02 AUDIO
    TITLE "12:cjc020_4128"
    INDEX 01 00:03:21
  TRACK 03 AUDIO
    TITLE "0:"
    INDEX 01 00:04:64
  TRACK 04 AUDIO
    TITLE "12:cjc020_4129"
    INDEX 01 00:05:32
  TRACK 05 AUDIO
    TITLE "0:"
    INDEX 01 00:06:57
  TRACK 06 AUDIO
    TITLE "13:cjc020_4130"
    INDEX 01 00:07:56
  TRACK 07 AUDIO
    TITLE "0:"
    INDEX 01 00:08:58
  TRACK 08 AUDIO
    TITLE "14:cjc020_4131"
    INDEX 01 00:08:64
  TRACK 09 AUDIO
    TITLE "0:"
    INDEX 01 00:11:19
  TRACK 10 AUDIO
    TITLE "13:cjc020_4132"
    INDEX 01 00:12:01
  TRACK 11 AUDIO
    TITLE "0:"
    INDEX 01 00:13:30
  TRACK 12 AUDIO
    TITLE "14:cjc020_4133"
    INDEX 01 00:13:33
  TRACK 13 AUDIO
    TITLE "0:"
    INDEX 01 00:14:49
  TRACK 14 AUDIO
    TITLE "13:cjc020_4134"
    INDEX 01 00:15:28
  TRACK 15 AUDIO
    TITLE "0:"
    INDEX 01 00:16:44
  TRACK 16 AUDIO
    TITLE "14:cjc020_4135"
    INDEX 01 00:16:49
  TRACK 17 AUDIO
    TITLE "0:"
    INDEX 01 00:18:72
  TRACK 18 AUDIO
    TITLE "13:cjc020_4136"
    INDEX 01 00:19:52
  TRACK 19 AUDIO
    TITLE "0:"
    INDEX 01 00:20:57
  TRACK 20 AUDIO
    TITLE "14:cjc020_4137"
    INDEX 01 00:20:59
  TRACK 21 AUDIO
    TITLE "0:"
    INDEX 01 00:23:24
  TRACK 22 AUDIO
    TITLE "13:cjc020_4138"
    INDEX 01 00:24:04
  TRACK 23 AUDIO
    TITLE "0:"
    INDEX 01 00:25:11
  TRACK 24 AUDIO
    TITLE "14:cjc020_4139"
    INDEX 01 00:25:15
  TRACK 25 AUDIO
    TITLE "0:"
    INDEX 01 00:26:34
  TRACK 26 AUDIO
    TITLE "13:cjc020_4140"
    INDEX 01 00:27:10
  TRACK 27 AUDIO
    TITLE "0:"
    INDEX 01 00:28:33
  TRACK 28 AUDIO
    TITLE "14:cjc020_4141"
    INDEX 01 00:28:35
  TRACK 29 AUDIO
    TITLE "0:"
    INDEX 01 00:31:08
  TRACK 30 AUDIO
    TITLE "13:cjc020_4142"
    INDEX 01 00:31:65
  TRACK 31 AUDIO
    TITLE "0:"
    INDEX 01 00:33:01
  TRACK 32 AUDIO
    TITLE "14:cjc020_4143"
    INDEX 01 00:33:03
  TRACK 33 AUDIO
    TITLE "0:"
    INDEX 01 00:35:43
  TRACK 34 AUDIO
    TITLE "13:cjc020_4144"
    INDEX 01 00:36:23
  TRACK 35 AUDIO
    TITLE "0:"
    INDEX 01 00:37:34
  TRACK 36 AUDIO
    TITLE "14:cjc020_4145"
    INDEX 01 00:37:38
  TRACK 37 AUDIO
    TITLE "0:"
    INDEX 01 00:40:11
  TRACK 38 AUDIO
    TITLE "13:cjc020_4146"
    INDEX 01 00:40:72
  TRACK 39 AUDIO
    TITLE "0:"
    INDEX 01 00:42:06
  TRACK 40 AUDIO
    TITLE "14:cjc020_4147"
    INDEX 01 00:42:12
  TRACK 41 AUDIO
    TITLE "0:"
    INDEX 01 00:45:24
  TRACK 42 AUDIO
    TITLE "13:cjc020_4148"
    INDEX 01 00:46:06
  TRACK 43 AUDIO
    TITLE "0:"
    INDEX 01 00:47:11
  TRACK 44 AUDIO
    TITLE "14:cjc020_4149"
    INDEX 01 00:47:19
  TRACK 45 AUDIO
    TITLE "0:"
    INDEX 01 00:48:53
  TRACK 46 AUDIO
    TITLE "13:cjc020_4150"
    INDEX 01 00:49:35
  TRACK 47 AUDIO
    TITLE "0:"
    INDEX 01 00:50:44
  TRACK 48 AUDIO
    TITLE "14:cjc020_4151"
    INDEX 01 00:50:46
  TRACK 49 AUDIO
    TITLE "0:"
    INDEX 01 00:51:63
  TRACK 50 AUDIO
    TITLE "13:cjc020_4152"
    INDEX 01 00:52:45
  TRACK 51 AUDIO
    TITLE "0:"
    INDEX 01 00:53:58
  TRACK 52 AUDIO
    TITLE "14:cjc020_4153"
    INDEX 01 00:53:60
  TRACK 53 AUDIO
    TITLE "0:"
    INDEX 01 00:56:16
  TRACK 54 AUDIO
    TITLE "13:cjc020_4154"
    INDEX 01 00:56:71
  TRACK 55 AUDIO
    TITLE "0:"
    INDEX 01 00:58:09
  TRACK 56 AUDIO
    TITLE "14:cjc020_4155"
    INDEX 01 00:58:15
  TRACK 57 AUDIO
    TITLE "0:"
    INDEX 01 00:59:32
  TRACK 58 AUDIO
    TITLE "13:cjc020_4156"
    INDEX 01 01:00:13
  TRACK 59 AUDIO
    TITLE "0:"
    INDEX 01 01:01:13
  TRACK 60 AUDIO
    TITLE "14:cjc020_4157"
    INDEX 01 01:01:17
  TRACK 61 AUDIO
    TITLE "0:"
    INDEX 01 01:03:08
  TRACK 62 AUDIO
    TITLE "13:cjc020_4158"
    INDEX 01 01:03:65
  TRACK 63 AUDIO
    TITLE "0:"
    INDEX 01 01:04:74
  TRACK 64 AUDIO
    TITLE "14:cjc020_4159"
    INDEX 01 01:05:03
  TRACK 65 AUDIO
    TITLE "0:"
    INDEX 01 01:06:73
